<?xml version="1.0" encoding="UTF-8"?>
<svg id="Layer_1" data-name="Layer 1" xmlns="http://www.w3.org/2000/svg" viewBox="0 0 376.83 118.65">
  <defs>
    <style>
      .cls-1 {
        fill: #be1e2d;
      }

      .cls-2 {
        fill: #231f20;
      }
    </style>
  </defs>
  <g>
    <path class="cls-2" d="m90.31,87.36c-.97,0-1.67-.45-2.08-1.34-.41-.89-.24-1.71.51-2.45l25.89-25.84-14.18-24.84c-.38-.67-.41-1.41-.11-2.23.3-.82.94-1.23,1.91-1.23h2.14c.75,0,1.33.19,1.75.56.41.37.73.74.96,1.11l12.61,22.17,22.29-22.17c.37-.37.81-.74,1.29-1.11.49-.37,1.29-.56,2.42-.56h1.8c.83-.07,1.5.33,2.03,1.23.52.89.34,1.78-.56,2.67l-25.78,25.84,13.96,24.73c.45.74.54,1.5.28,2.28-.26.78-.92,1.17-1.97,1.17h-2.14c-.75,0-1.35-.18-1.8-.56-.45-.37-.79-.74-1.01-1.11l-12.5-21.94-21.95,21.94c-.3.3-.71.65-1.24,1.06-.53.41-1.35.61-2.48.61h-2.03Z"/>
    <path class="cls-2" d="m170.02,88.47c-5.18,0-9.42-1.11-12.72-3.34-3.3-2.23-5.59-5.27-6.87-9.13-1.28-3.86-1.46-8.17-.56-12.92.15-1.11.45-2.67.9-4.68s.83-3.56,1.13-4.68c1.2-4.83,3.1-9.15,5.68-12.98,2.59-3.82,5.89-6.85,9.91-9.08,4.01-2.23,8.72-3.34,14.13-3.34s9.74,1.11,13,3.34c3.26,2.23,5.52,5.25,6.75,9.08,1.24,3.83,1.41,8.15.51,12.98-.23,1.11-.55,2.67-.96,4.68-.41,2-.77,3.56-1.07,4.68-1.2,4.75-3.1,9.06-5.69,12.92-2.59,3.86-5.89,6.91-9.91,9.13-4.02,2.23-8.76,3.34-14.24,3.34Zm0-6.46c5.33,0,10.11-1.67,14.35-5.01,4.24-3.34,7.15-8.17,8.72-14.48.3-1.11.62-2.49.96-4.12.34-1.63.62-3.01.84-4.12,1.13-6.39.52-11.23-1.8-14.54-2.33-3.3-6.15-4.96-11.48-4.96s-10,1.65-14.24,4.96c-4.24,3.31-7.15,8.15-8.72,14.54-.3,1.11-.64,2.49-1.01,4.12-.38,1.63-.64,3.01-.79,4.12-1.13,6.31-.56,11.14,1.69,14.48s6.08,5.01,11.48,5.01Z"/>
    <path class="cls-2" d="m210.43,87.36c-.75,0-1.31-.22-1.69-.67-.38-.45-.49-1.04-.34-1.78l15.99-74.19c.15-.74.49-1.34,1.01-1.78.52-.45,1.16-.67,1.91-.67h1.91c.75,0,1.31.22,1.69.67.38.45.49,1.04.34,1.78l-15.99,74.19c-.15.74-.49,1.34-1.01,1.78-.53.45-1.16.67-1.91.67h-1.91Z"/>
    <path class="cls-2" d="m253.88,88.47c-5.7,0-10.06-1.1-13.06-3.29-3-2.19-4.88-5.18-5.63-8.97-.75-3.79-.64-8.02.34-12.7l6.75-31.63c.15-.74.51-1.34,1.07-1.78.56-.45,1.22-.67,1.97-.67h1.91c.75,0,1.29.22,1.63.67.34.45.43,1.04.28,1.78l-6.64,31.08c-.9,4.16-1.22,7.67-.96,10.53.26,2.86,1.35,5,3.26,6.41,1.91,1.41,4.93,2.12,9.06,2.12,5.63,0,10.56-1.69,14.8-5.07,4.24-3.38,7-8.04,8.27-13.98l6.64-31.08c.15-.74.51-1.34,1.07-1.78.56-.45,1.22-.67,1.97-.67h1.91c.75,0,1.29.22,1.63.67.34.45.43,1.04.28,1.78l-11.37,53.02c-.15.74-.49,1.34-1.01,1.78-.53.45-1.16.67-1.91.67h-1.91c-.75,0-1.31-.22-1.69-.67-.38-.45-.49-1.04-.34-1.78l1.13-5.24c-1.73,1.71-3.43,3.23-5.12,4.57-1.69,1.34-3.64,2.38-5.85,3.12-2.21.74-5.05,1.11-8.5,1.11Z"/>
    <path class="cls-2" d="m292.27,87.36c-.97,0-1.67-.45-2.08-1.34-.41-.89-.24-1.71.51-2.45l25.89-25.84-14.18-24.84c-.38-.67-.41-1.41-.11-2.23.3-.82.94-1.23,1.91-1.23h2.14c.75,0,1.33.19,1.75.56.41.37.73.74.96,1.11l12.61,22.17,22.29-22.17c.37-.37.81-.74,1.29-1.11.49-.37,1.29-.56,2.42-.56h1.8c.83-.07,1.5.33,2.03,1.23.52.89.34,1.78-.56,2.67l-25.78,25.84,13.96,24.73c.45.74.54,1.5.28,2.28-.26.78-.92,1.17-1.97,1.17h-2.14c-.75,0-1.35-.18-1.8-.56-.45-.37-.79-.74-1.01-1.11l-12.5-21.94-21.95,21.94c-.3.3-.71.65-1.24,1.06-.53.41-1.35.61-2.48.61h-2.03Z"/>
    <path class="cls-2" d="m364.34,87.36c-1.74,0-3.35-.32-4.86-.96-1.5-.64-2.83-1.53-3.97-2.66-1.15-1.13-2.04-2.44-2.69-3.93-.65-1.49-.97-3.09-.97-4.81s.32-3.32.97-4.81c.65-1.49,1.54-2.8,2.69-3.93,1.15-1.13,2.47-2.02,3.97-2.66,1.5-.64,3.12-.96,4.86-.96s3.35.32,4.86.96c1.5.64,2.83,1.53,3.97,2.66,1.15,1.13,2.04,2.44,2.69,3.93.65,1.49.97,3.09.97,4.81s-.32,3.32-.97,4.81c-.65,1.49-1.54,2.8-2.69,3.93-1.15,1.13-2.47,2.02-3.97,2.66-1.5.64-3.12.96-4.86.96Zm0-1.89c1.43,0,2.78-.27,4.04-.82,1.26-.55,2.37-1.3,3.31-2.27.95-.96,1.69-2.08,2.24-3.35s.82-2.61.82-4.03-.27-2.76-.82-4.03-1.29-2.39-2.24-3.35-2.05-1.72-3.31-2.27c-1.26-.55-2.61-.82-4.04-.82s-2.78.27-4.04.82c-1.26.55-2.37,1.3-3.31,2.27-.95.96-1.69,2.08-2.24,3.35-.54,1.27-.82,2.62-.82,4.03s.27,2.76.82,4.03c.54,1.27,1.29,2.39,2.24,3.35.95.96,2.05,1.72,3.31,2.27,1.26.55,2.61.82,4.04.82Zm0-3.88c-1.16,0-2.15-.25-2.98-.76-.83-.5-1.47-1.17-1.91-1.99-.44-.82-.68-1.73-.73-2.71,0-.23,0-.48-.02-.76s-.01-.55,0-.82.02-.53.02-.76c.05-.98.29-1.89.73-2.71.44-.82,1.08-1.49,1.91-1.99.83-.5,1.83-.76,2.98-.76,1.25,0,2.28.19,3.09.58s1.41.86,1.8,1.42c.39.56.59,1.12.59,1.66,0,.23-.07.41-.21.55-.14.14-.32.21-.56.21h-.59c-.23,0-.41-.07-.52-.21-.12-.14-.21-.29-.28-.45-.21-.55-.57-.98-1.08-1.3-.51-.32-1.26-.48-2.26-.48-.93,0-1.64.19-2.13.57-.5.38-.84.84-1.04,1.37-.2.54-.31,1.05-.33,1.53,0,.23,0,.48-.02.76-.01.27-.01.55,0,.82.01.27.02.53.02.76.02.46.13.96.33,1.51.2.55.54,1.01,1.04,1.39.5.38,1.21.57,2.13.57.99,0,1.75-.16,2.26-.48.51-.32.87-.76,1.08-1.3.07-.18.16-.34.28-.46.12-.13.29-.19.52-.19h.59c.23,0,.42.07.56.21.14.14.21.32.21.55,0,.53-.2,1.08-.59,1.65-.39.57-.99,1.05-1.8,1.44s-1.84.58-3.09.58Z"/>
  </g>
  <g>
    <path class="cls-2" d="m32.77,118.48c-.12,0-.2-.03-.26-.1s-.08-.16-.05-.28l2.45-11.39c.02-.12.08-.21.16-.28.08-.07.18-.1.3-.1h.33c.12,0,.2.03.26.1.06.07.07.16.05.28l-2.43,11.39c-.02.12-.08.21-.16.28s-.18.1-.29.1h-.35Z"/>
    <path class="cls-2" d="m39.24,118.48c-.12,0-.2-.03-.26-.1-.06-.07-.08-.16-.05-.28l2.41-11.37c.02-.13.08-.23.16-.3.08-.07.18-.1.29-.1h.35c.12,0,.2.02.24.07.05.05.08.09.09.14l4.36,9.92,2.07-9.72c.02-.13.08-.23.16-.3.09-.07.19-.1.3-.1h.31c.13,0,.22.03.27.1.05.07.07.17.04.3l-2.41,11.36c-.02.12-.08.21-.16.29-.08.08-.18.11-.3.11h-.35c-.12,0-.19-.02-.23-.07s-.07-.09-.1-.14l-4.34-9.88-2.07,9.71c-.02.12-.08.21-.16.28s-.19.1-.31.1h-.33Z"/>
    <path class="cls-2" d="m57.23,118.65c-1,0-1.79-.19-2.39-.58-.6-.39-1-.93-1.21-1.62-.21-.69-.23-1.49-.07-2.4.09-.52.2-1.07.33-1.65.13-.58.25-1.13.38-1.65.22-.91.58-1.72,1.09-2.4.5-.69,1.14-1.23,1.9-1.62.76-.39,1.64-.58,2.62-.58.8,0,1.46.12,1.98.36s.92.53,1.21.89c.28.35.47.71.56,1.07.09.36.12.66.09.9-.01.1-.06.19-.14.25-.08.06-.18.1-.3.1h-.38c-.1,0-.17-.03-.21-.08-.03-.05-.06-.14-.09-.27-.03-.36-.15-.7-.36-1.03s-.51-.6-.93-.82c-.42-.21-.97-.32-1.67-.32-1.03,0-1.92.28-2.68.84-.76.56-1.3,1.5-1.62,2.8-.13.52-.25,1.04-.36,1.56-.12.52-.22,1.04-.31,1.56-.22,1.3-.07,2.23.45,2.8.52.57,1.3.85,2.33.85.68,0,1.32-.13,1.92-.39s1.11-.66,1.54-1.2c.43-.54.73-1.22.9-2.06l.19-.89h-3.02c-.12,0-.2-.04-.25-.11s-.07-.17-.04-.29l.05-.24c.02-.13.08-.23.17-.29.09-.07.19-.1.3-.1h3.72c.13,0,.22.03.27.1s.07.17.04.29l-.33,1.53c-.2.93-.55,1.74-1.07,2.45-.52.71-1.16,1.26-1.95,1.65s-1.67.59-2.67.59Z"/>
    <path class="cls-2" d="m66.87,118.48c-.12,0-.2-.03-.26-.1-.06-.07-.08-.16-.05-.28l2.41-11.37c.02-.13.08-.23.16-.3.09-.07.19-.1.3-.1h6.77c.13,0,.22.03.27.1.05.07.07.17.04.3l-.05.26c-.02.12-.08.21-.16.28-.08.07-.19.1-.31.1h-6.06l-.96,4.43h5.68c.13,0,.22.03.27.1.05.07.07.17.04.3l-.05.26c-.02.12-.08.21-.16.28-.08.07-.19.1-.31.1h-5.68l-.99,4.6h6.2c.13,0,.22.03.27.1.05.07.07.17.04.3l-.05.26c-.02.12-.08.21-.16.28-.08.07-.19.1-.31.1h-6.91Z"/>
    <path class="cls-2" d="m79.22,118.48c-.12,0-.2-.03-.26-.1-.06-.07-.08-.16-.05-.28l2.41-11.37c.02-.13.08-.23.16-.3.08-.07.18-.1.29-.1h.35c.12,0,.2.02.24.07.05.05.08.09.09.14l4.36,9.92,2.07-9.72c.02-.13.08-.23.16-.3.09-.07.19-.1.3-.1h.31c.13,0,.22.03.27.1.05.07.07.17.04.3l-2.41,11.36c-.02.12-.08.21-.16.29-.08.08-.18.11-.3.11h-.35c-.12,0-.19-.02-.23-.07s-.07-.09-.1-.14l-4.34-9.88-2.07,9.71c-.02.12-.08.21-.16.28s-.19.1-.31.1h-.33Z"/>
    <path class="cls-2" d="m93.22,118.48c-.12,0-.2-.03-.26-.1s-.08-.16-.05-.28l2.45-11.39c.02-.12.08-.21.16-.28.08-.07.18-.1.3-.1h.33c.12,0,.2.03.26.1.06.07.07.16.05.28l-2.43,11.39c-.02.12-.08.21-.16.28s-.18.1-.29.1h-.35Z"/>
    <path class="cls-2" d="m99.69,118.48c-.12,0-.2-.03-.26-.1-.06-.07-.08-.16-.05-.28l2.41-11.37c.02-.13.08-.23.16-.3.09-.07.19-.1.3-.1h6.77c.13,0,.22.03.27.1.05.07.07.17.04.3l-.05.26c-.02.12-.08.21-.16.28-.08.07-.19.1-.31.1h-6.06l-.96,4.43h5.68c.13,0,.22.03.27.1.05.07.07.17.04.3l-.05.26c-.02.12-.08.21-.16.28-.08.07-.19.1-.31.1h-5.68l-.99,4.6h6.2c.13,0,.22.03.27.1.05.07.07.17.04.3l-.05.26c-.02.12-.08.21-.16.28-.08.07-.19.1-.31.1h-6.91Z"/>
    <path class="cls-2" d="m112.27,118.48c-.12,0-.2-.03-.25-.1s-.07-.16-.04-.28l2.41-11.37c.02-.13.08-.23.16-.3.09-.07.19-.1.3-.1h4.05c1.22,0,2.12.29,2.73.87.6.58.78,1.46.52,2.64-.2.93-.58,1.67-1.16,2.22s-1.3.93-2.17,1.13l1.79,4.76s.02.07.02.1,0,.06-.02.1c-.01.09-.06.17-.15.24-.09.07-.18.1-.27.1h-.21c-.19,0-.31-.05-.38-.15-.07-.1-.13-.2-.17-.32l-1.77-4.67h-3.58l-1.01,4.76c-.02.12-.08.21-.16.28-.09.07-.19.1-.32.1h-.31Zm2.03-6.18h3.25c1.01,0,1.8-.21,2.38-.62.58-.41.96-1.03,1.13-1.85.17-.82.06-1.44-.35-1.85s-1.11-.62-2.12-.62h-3.25l-1.04,4.93Z"/>
    <path class="cls-2" d="m125.22,118.48c-.12,0-.2-.03-.26-.1s-.08-.16-.05-.28l2.45-11.39c.02-.12.08-.21.16-.28.08-.07.18-.1.3-.1h.33c.12,0,.2.03.26.1.06.07.07.16.05.28l-2.43,11.39c-.02.12-.08.21-.16.28s-.18.1-.29.1h-.35Zm2.64-13.02c-.16,0-.24-.07-.24-.21,0-.09.04-.18.12-.26l1.55-1.48c.12-.12.22-.2.31-.24.09-.05.23-.07.4-.07h.8c.09,0,.16.03.21.08.05.05.07.11.07.17,0,.13-.05.23-.16.29l-2.22,1.55c-.12.08-.21.13-.29.15s-.17.03-.29.03h-.26Z"/>
    <path class="cls-2" d="m130.46,118.48c-.15,0-.25-.06-.3-.18s-.04-.24.03-.36l6.79-11.27c.07-.12.15-.2.23-.26s.2-.09.34-.09h.73c.14,0,.24.03.31.09.07.06.11.14.12.26l2,11.27c.03.17.02.31-.04.4-.06.09-.15.14-.27.14h-.36c-.1,0-.19-.03-.26-.09s-.12-.15-.14-.28l-.52-2.67h-6.13l-1.7,2.78c-.05.08-.11.15-.19.19s-.16.07-.24.07h-.38Zm3.14-4.08h5.33l-1.22-6.84-4.12,6.84Z"/>
    <path class="cls-2" d="m153.91,118.48c-.12,0-.2-.03-.26-.1s-.08-.16-.05-.28l.89-4.25-2.76-6.95c-.05-.13-.03-.25.05-.38.08-.13.2-.19.35-.19h.3c.08,0,.15.02.21.06.06.04.1.11.14.2l2.41,6.08,4.98-6.08c.07-.09.14-.16.22-.2s.15-.06.23-.06h.54c.2,0,.3.06.3.19,0,.13-.04.25-.15.38l-5.71,6.95-.92,4.25c-.02.12-.08.21-.16.28s-.19.1-.31.1h-.3Z"/>
    <path class="cls-2" d="m169.82,118.48c-.12,0-.21-.03-.27-.1-.06-.07-.08-.16-.06-.28l2.41-11.37c.02-.13.08-.23.17-.3.09-.07.2-.1.31-.1h.45c.12,0,.2.03.24.09s.08.1.09.14l2.31,7.68,5.59-7.68s.07-.08.13-.14c.06-.06.15-.09.27-.09h.43c.13,0,.22.03.27.1.05.07.07.17.04.3l-2.41,11.37c-.02.12-.08.21-.16.28s-.19.1-.31.1h-.33c-.12,0-.2-.03-.26-.1-.06-.07-.08-.16-.05-.28l1.95-9.13-4.55,6.25c-.08.1-.17.19-.26.25-.09.06-.21.1-.35.1h-.36c-.14,0-.24-.03-.31-.09-.07-.06-.12-.15-.16-.26l-2.01-6.7-2.03,9.59c-.02.12-.08.21-.16.28s-.18.1-.3.1h-.33Z"/>
    <path class="cls-2" d="m189.27,118.65c-.67,0-1.27-.1-1.8-.29s-.96-.48-1.28-.88-.55-.89-.66-1.49c-.11-.6-.09-1.31.06-2.14.09-.52.19-1.01.29-1.46.1-.45.21-.94.34-1.46.38-1.62,1.05-2.83,2.01-3.61.96-.79,2.12-1.18,3.48-1.18.68,0,1.28.1,1.81.29.52.2.95.5,1.28.89.33.4.55.9.66,1.49.11.6.09,1.3-.06,2.11-.09.52-.19,1.01-.29,1.46-.1.45-.21.94-.34,1.46-.39,1.64-1.07,2.85-2.02,3.63-.96.78-2.11,1.16-3.46,1.16Zm0-1.04c1.03,0,1.94-.3,2.73-.9.79-.6,1.35-1.58,1.68-2.93.13-.52.23-.98.32-1.37.09-.39.18-.85.27-1.37.24-1.35.14-2.33-.3-2.93-.45-.6-1.2-.9-2.27-.9s-1.97.3-2.74.9-1.33,1.58-1.67,2.93c-.13.52-.23.98-.32,1.37-.09.39-.18.85-.27,1.37-.24,1.35-.14,2.33.3,2.93.44.6,1.2.9,2.27.9Z"/>
    <path class="cls-2" d="m199.06,118.48c-.12,0-.2-.03-.26-.1-.06-.07-.08-.16-.05-.28l2.41-11.37c.02-.13.08-.23.16-.3.08-.07.18-.1.29-.1h.35c.12,0,.2.02.24.07.05.05.08.09.09.14l4.36,9.92,2.07-9.72c.02-.13.08-.23.16-.3.09-.07.19-.1.3-.1h.31c.13,0,.22.03.27.1.05.07.07.17.04.3l-2.41,11.36c-.02.12-.08.21-.16.29-.08.08-.18.11-.3.11h-.35c-.12,0-.19-.02-.23-.07s-.07-.09-.1-.14l-4.34-9.88-2.07,9.71c-.02.12-.08.21-.16.28s-.19.1-.31.1h-.33Z"/>
    <path class="cls-2" d="m215.66,118.48c-.12,0-.2-.03-.26-.1s-.08-.16-.05-.28l2.29-10.73h-3.44c-.12,0-.2-.03-.26-.1-.06-.07-.08-.16-.05-.28l.05-.26c.02-.13.08-.23.16-.3.09-.07.19-.1.3-.1h7.95c.13,0,.22.03.27.1.05.07.07.17.04.3l-.05.26c-.02.12-.08.21-.16.28s-.19.1-.31.1h-3.42l-2.29,10.73c-.02.12-.08.21-.16.28-.08.07-.19.1-.31.1h-.31Z"/>
    <path class="cls-2" d="m222.16,118.48c-.15,0-.25-.06-.3-.18s-.04-.24.03-.36l6.79-11.27c.07-.12.15-.2.23-.26s.2-.09.34-.09h.73c.14,0,.24.03.31.09.07.06.11.14.12.26l2,11.27c.03.17.02.31-.04.4-.06.09-.15.14-.27.14h-.36c-.1,0-.19-.03-.26-.09s-.12-.15-.14-.28l-.52-2.67h-6.13l-1.7,2.78c-.05.08-.11.15-.19.19s-.16.07-.24.07h-.38Zm3.14-4.08h5.33l-1.22-6.84-4.12,6.84Z"/>
    <path class="cls-2" d="m239.59,118.65c-.52,0-1.02-.07-1.48-.21-.47-.14-.88-.35-1.22-.64-.35-.29-.6-.66-.76-1.1-.16-.45-.2-.98-.12-1.59.02-.1.07-.19.13-.27.06-.08.15-.11.27-.11h.38c.12,0,.2.03.26.1.06.07.08.16.05.26-.12.9.06,1.55.53,1.94.47.39,1.13.58,1.97.58,1.15,0,2.03-.33,2.67-1,.63-.66,1.06-1.53,1.28-2.58l1.42-6.67h-6.39c-.12,0-.2-.03-.26-.1s-.08-.16-.05-.28l.07-.28c.02-.12.08-.21.16-.28.08-.07.18-.1.3-.1h7.1c.13,0,.22.03.27.1.05.07.07.17.04.3l-1.55,7.33c-.19.9-.48,1.7-.88,2.4s-.94,1.24-1.62,1.62c-.68.39-1.53.58-2.56.58Z"/>
    <path class="cls-2" d="m249.35,118.48c-.12,0-.2-.03-.26-.1-.06-.07-.08-.16-.05-.28l2.41-11.37c.02-.13.08-.23.16-.3.09-.07.19-.1.3-.1h6.77c.13,0,.22.03.27.1.05.07.07.17.04.3l-.05.26c-.02.12-.08.21-.16.28-.08.07-.19.1-.31.1h-6.06l-.96,4.43h5.68c.13,0,.22.03.27.1.05.07.07.17.04.3l-.05.26c-.02.12-.08.21-.16.28-.08.07-.19.1-.31.1h-5.68l-.99,4.6h6.2c.13,0,.22.03.27.1.05.07.07.17.04.3l-.05.26c-.02.12-.08.21-.16.28-.08.07-.19.1-.31.1h-6.91Z"/>
    <path class="cls-2" d="m268.37,118.48c-.12,0-.2-.03-.26-.1-.06-.07-.08-.16-.05-.28l2.41-11.37c.02-.13.08-.23.16-.3.09-.07.19-.1.3-.1h6.77c.13,0,.22.03.27.1.05.07.07.17.04.3l-.05.26c-.02.12-.08.21-.16.28-.08.07-.19.1-.31.1h-6.06l-.96,4.43h5.68c.13,0,.22.03.27.1.05.07.07.17.04.3l-.05.26c-.02.12-.08.21-.16.28-.08.07-.19.1-.31.1h-5.68l-.99,4.6h6.2c.13,0,.22.03.27.1.05.07.07.17.04.3l-.05.26c-.02.12-.08.21-.16.28-.08.07-.19.1-.31.1h-6.91Z"/>
    <path class="cls-2" d="m280.71,118.48c-.12,0-.2-.03-.26-.1-.06-.07-.08-.16-.05-.28l2.43-11.39c.02-.12.08-.21.16-.28.08-.07.18-.1.3-.1h.33c.12,0,.2.03.26.1.06.07.07.16.05.28l-2.29,10.73h5.99c.13,0,.22.03.27.1.05.07.07.17.04.3l-.05.26c-.02.12-.08.21-.16.28s-.19.1-.31.1h-6.7Z"/>
    <path class="cls-2" d="m292.17,118.48c-.12,0-.2-.03-.26-.1-.06-.07-.08-.16-.05-.28l2.41-11.37c.02-.13.08-.23.16-.3.09-.07.19-.1.3-.1h6.77c.13,0,.22.03.27.1.05.07.07.17.04.3l-.05.26c-.02.12-.08.21-.16.28-.08.07-.19.1-.31.1h-6.06l-.96,4.43h5.68c.13,0,.22.03.27.1.05.07.07.17.04.3l-.05.26c-.02.12-.08.21-.16.28-.08.07-.19.1-.31.1h-5.68l-.99,4.6h6.2c.13,0,.22.03.27.1.05.07.07.17.04.3l-.05.26c-.02.12-.08.21-.16.28-.08.07-.19.1-.31.1h-6.91Zm5.75-13.02c-.16,0-.24-.07-.24-.21,0-.09.04-.18.12-.26l1.55-1.48c.12-.12.22-.2.31-.24.09-.05.23-.07.4-.07h.8c.09,0,.16.03.21.08.05.05.07.11.07.17,0,.13-.05.23-.16.29l-2.22,1.55c-.12.08-.21.13-.29.15s-.17.03-.29.03h-.26Z"/>
    <path class="cls-2" d="m308.25,118.65c-.79,0-1.45-.12-1.98-.35-.53-.23-.95-.56-1.24-.99-.3-.43-.48-.93-.56-1.5-.08-.57-.06-1.2.05-1.87.08-.47.18-.98.3-1.53.12-.54.24-1.07.36-1.56.23-.9.57-1.71,1.02-2.42.45-.71,1.04-1.27,1.78-1.68.73-.41,1.63-.61,2.68-.61.82,0,1.5.11,2.05.33s.97.52,1.28.89c.31.37.51.78.6,1.22.09.44.1.88.03,1.32-.01.1-.04.19-.1.25-.05.06-.13.1-.23.1h-.4c-.09,0-.18-.03-.26-.08-.08-.05-.12-.15-.1-.29.1-.98-.12-1.68-.66-2.08-.54-.41-1.28-.61-2.21-.61-1.05,0-1.97.3-2.75.89s-1.33,1.55-1.66,2.86c-.24.95-.45,1.92-.63,2.92-.23,1.31-.12,2.26.35,2.86.46.6,1.22.89,2.27.89.93,0,1.75-.19,2.46-.57.71-.38,1.29-1.09,1.73-2.12.06-.14.12-.23.19-.29.07-.05.15-.08.24-.08h.4c.1,0,.19.03.24.1.06.06.07.15.03.25-.13.41-.31.83-.56,1.27-.24.44-.57.85-.98,1.22-.41.38-.92.68-1.54.91-.61.23-1.35.35-2.22.35Z"/>
    <path class="cls-2" d="m320.27,118.48c-.12,0-.2-.03-.26-.1s-.08-.16-.05-.28l2.29-10.73h-3.44c-.12,0-.2-.03-.26-.1-.06-.07-.08-.16-.05-.28l.05-.26c.02-.13.08-.23.16-.3.09-.07.19-.1.3-.1h7.95c.13,0,.22.03.27.1.05.07.07.17.04.3l-.05.26c-.02.12-.08.21-.16.28s-.19.1-.31.1h-3.42l-2.29,10.73c-.02.12-.08.21-.16.28-.08.07-.19.1-.31.1h-.31Z"/>
    <path class="cls-2" d="m329.56,118.48c-.12,0-.2-.03-.25-.1s-.07-.16-.04-.28l2.41-11.37c.02-.13.08-.23.16-.3.09-.07.19-.1.3-.1h4.05c1.22,0,2.12.29,2.73.87.6.58.78,1.46.52,2.64-.2.93-.58,1.67-1.16,2.22s-1.3.93-2.17,1.13l1.79,4.76s.02.07.02.1,0,.06-.02.1c-.01.09-.06.17-.15.24-.09.07-.18.1-.27.1h-.21c-.19,0-.31-.05-.38-.15-.07-.1-.13-.2-.17-.32l-1.77-4.67h-3.58l-1.01,4.76c-.02.12-.08.21-.16.28-.09.07-.19.1-.32.1h-.31Zm2.03-6.18h3.25c1.01,0,1.8-.21,2.38-.62.58-.41.96-1.03,1.13-1.85.17-.82.06-1.44-.35-1.85s-1.11-.62-2.12-.62h-3.25l-1.04,4.93Z"/>
    <path class="cls-2" d="m342.52,118.48c-.12,0-.2-.03-.26-.1s-.08-.16-.05-.28l2.45-11.39c.02-.12.08-.21.16-.28.08-.07.18-.1.3-.1h.33c.12,0,.2.03.26.1.06.07.07.16.05.28l-2.43,11.39c-.02.12-.08.21-.16.28s-.18.1-.29.1h-.35Z"/>
    <path class="cls-2" d="m352.82,118.65c-.79,0-1.45-.12-1.98-.35-.53-.23-.95-.56-1.24-.99-.3-.43-.48-.93-.56-1.5-.08-.57-.06-1.2.05-1.87.08-.47.18-.98.3-1.53.12-.54.24-1.07.36-1.56.23-.9.57-1.71,1.02-2.42.45-.71,1.04-1.27,1.78-1.68.73-.41,1.63-.61,2.68-.61.82,0,1.5.11,2.05.33s.97.52,1.28.89c.31.37.51.78.6,1.22.09.44.1.88.03,1.32-.01.1-.04.19-.1.25-.05.06-.13.1-.23.1h-.4c-.09,0-.18-.03-.26-.08-.08-.05-.12-.15-.1-.29.1-.98-.12-1.68-.66-2.08-.54-.41-1.28-.61-2.21-.61-1.05,0-1.97.3-2.75.89s-1.33,1.55-1.66,2.86c-.24.95-.45,1.92-.63,2.92-.23,1.31-.12,2.26.35,2.86.46.6,1.22.89,2.27.89.93,0,1.75-.19,2.46-.57.71-.38,1.29-1.09,1.73-2.12.06-.14.12-.23.19-.29.07-.05.15-.08.24-.08h.4c.1,0,.19.03.24.1.06.06.07.15.03.25-.13.41-.31.83-.56,1.27-.24.44-.57.85-.98,1.22-.41.38-.92.68-1.54.91-.61.23-1.35.35-2.22.35Z"/>
    <path class="cls-2" d="m366.15,118.65c-.67,0-1.27-.1-1.8-.29s-.96-.48-1.28-.88-.55-.89-.66-1.49c-.11-.6-.09-1.31.06-2.14.09-.52.19-1.01.29-1.46.1-.45.21-.94.34-1.46.38-1.62,1.05-2.83,2.01-3.61.96-.79,2.12-1.18,3.48-1.18.68,0,1.28.1,1.81.29.52.2.95.5,1.28.89.33.4.55.9.66,1.49.11.6.09,1.3-.06,2.11-.09.52-.19,1.01-.29,1.46-.1.45-.21.94-.34,1.46-.39,1.64-1.07,2.85-2.02,3.63-.96.78-2.11,1.16-3.46,1.16Zm0-1.04c1.03,0,1.94-.3,2.73-.9.79-.6,1.35-1.58,1.68-2.93.13-.52.23-.98.32-1.37.09-.39.18-.85.27-1.37.24-1.35.14-2.33-.3-2.93-.45-.6-1.2-.9-2.27-.9s-1.97.3-2.74.9-1.33,1.58-1.67,2.93c-.13.52-.23.98-.32,1.37-.09.39-.18.85-.27,1.37-.24,1.35-.14,2.33.3,2.93.44.6,1.2.9,2.27.9Z"/>
  </g>
  <path class="cls-1" d="m30.95,85.6c-.37,0-1.11.37-1.48.74l-22.27,22.64,19.67-48.62c.37-.74,0-1.11-.37-1.86-.37-.37-1.11-.74-1.48-.74H6.45L53.59,9.89l-14.84,36.67c1.06-2.13,2.27-4.13,3.64-5.99,1.43-1.94,3.02-3.67,4.74-5.18L60.64,2.1c.37-.37,0-1.48-.74-1.86-.74-.37-1.86-.37-2.6.37L.52,57.77c-.37.74-.37,1.48-.37,2.23s1.11,1.11,1.86,1.11h20.41L.15,116.04c-.37.74,0,1.86.74,2.23.37.37.74.37,1.11.37s1.11-.37,1.48-.74l28.95-28.95c.37-.37.37-.74.37-1.48,0-1.11-.74-1.86-1.86-1.86Z"/>
  <path class="cls-1" d="m53.09,88.47c-4.8,0-8.76-1.08-11.88-3.23-3.12-2.15-5.27-5.16-6.47-9.02-1.2-3.86-1.46-8.32-.79-13.37.15-1.11.43-2.6.84-4.46.41-1.86.77-3.34,1.07-4.46,1.5-5.05,3.68-9.5,6.53-13.37,2.85-3.86,6.28-6.87,10.3-9.02,4.01-2.15,8.46-3.23,13.34-3.23,5.25,0,9.46,1.15,12.61,3.45,3.15,2.3,5.25,5.61,6.3,9.91,1.05,4.31.97,9.43-.23,15.37l-.34,1.67c-.15.74-.53,1.34-1.13,1.78-.6.45-1.28.67-2.03.67h-40.08c-.08.6-.15.97-.23,1.11-.53,3.34-.41,6.52.34,9.52.75,3.01,2.23,5.46,4.45,7.35,2.21,1.89,5.12,2.84,8.72,2.84,3.23,0,6.02-.48,8.39-1.45,2.36-.96,4.3-2.02,5.8-3.17,1.5-1.15,2.51-2.02,3.04-2.62.9-.96,1.56-1.54,1.97-1.73.41-.18,1.03-.28,1.86-.28h1.8c.68,0,1.2.21,1.58.61.37.41.49.95.34,1.62-.3,1.04-1.15,2.32-2.53,3.84-1.39,1.52-3.26,3.03-5.63,4.51-2.36,1.49-5.07,2.71-8.1,3.68-3.04.96-6.32,1.45-9.85,1.45Zm-10.58-33.53h35.8l.11-.45c.97-3.71,1.05-7.05.23-10.02-.83-2.97-2.42-5.33-4.78-7.07-2.36-1.74-5.42-2.62-9.17-2.62s-7.11.87-10.08,2.62c-2.97,1.75-5.46,4.1-7.49,7.07-2.03,2.97-3.53,6.31-4.5,10.02l-.11.45Z"/>
</svg>